<svg id="Layer_1" data-name="Layer 1" xmlns="http://www.w3.org/2000/svg" xmlns:xlink="http://www.w3.org/1999/xlink" width="1021.4" height="497.42" viewBox="0 0 1021.4 497.42"><defs><linearGradient id="linear-gradient" x1="12.55" y1="469.47" x2="777.56" y2="248.01" gradientUnits="userSpaceOnUse"><stop offset="0.18" stop-color="#de5c2a"/><stop offset="0.41" stop-color="#924f35"/><stop offset="0.6" stop-color="#5a453e"/><stop offset="0.74" stop-color="#373f43"/><stop offset="0.82" stop-color="#2a3d45"/></linearGradient><linearGradient id="linear-gradient-2" x1="-8.42" y1="397.02" x2="756.59" y2="175.57" xlink:href="#linear-gradient"/><linearGradient id="linear-gradient-3" x1="-7.9" y1="398.83" x2="757.11" y2="177.38" gradientUnits="userSpaceOnUse"><stop offset="0.18" stop-color="#de5c2a"/><stop offset="0.46" stop-color="#924f35"/><stop offset="0.69" stop-color="#5a453e"/><stop offset="0.87" stop-color="#373f43"/><stop offset="0.96" stop-color="#2a3d45"/></linearGradient><linearGradient id="linear-gradient-4" x1="25.17" y1="513.07" x2="790.18" y2="291.62" gradientUnits="userSpaceOnUse"><stop offset="0" stop-color="#de5c2a"/><stop offset="0.36" stop-color="#924f35"/><stop offset="0.65" stop-color="#5a453e"/><stop offset="0.87" stop-color="#373f43"/><stop offset="0.99" stop-color="#2a3d45"/></linearGradient><linearGradient id="linear-gradient-5" x1="41.95" y1="571.04" x2="806.96" y2="349.59" xlink:href="#linear-gradient"/><linearGradient id="linear-gradient-6" x1="77.59" y1="694.16" x2="842.6" y2="472.71" gradientUnits="userSpaceOnUse"><stop offset="0" stop-color="#de5c2a"/><stop offset="0.07" stop-color="#af5431"/><stop offset="0.17" stop-color="#764a3a"/><stop offset="0.25" stop-color="#4d4340"/><stop offset="0.32" stop-color="#333f44"/><stop offset="0.36" stop-color="#2a3d45"/></linearGradient></defs><title>logo</title><path d="M495,479a276,276,0,0,0-360.89,18.43H0A248.79,248.79,0,0,1,248.36,262.34,248.83,248.83,0,0,1,495,479Z" fill="url(#linear-gradient)"/><path d="M501.05,149.7A248.77,248.77,0,0,0,78.51,293.5a276.06,276.06,0,0,1,365,22.41A274.05,274.05,0,0,1,522.31,477.3a248.84,248.84,0,0,0-21.26-327.6Z" fill="url(#linear-gradient-2)"/><path d="M686.59,72.84A248.9,248.9,0,0,0,358.9,51.61,276.06,276.06,0,0,1,542.76,495.38,248.78,248.78,0,0,0,759.41,248.71,247.22,247.22,0,0,0,686.59,72.84Z" fill="url(#linear-gradient-3)"/><path d="M872.06,149.7A246.71,246.71,0,0,0,728.3,78.9a276.42,276.42,0,0,1-97.65,418.52H876a248.65,248.65,0,0,0-3.92-347.72Z" fill="url(#linear-gradient-4)"/><path d="M325.15,447.83a247,247,0,0,0-149,49.59H474.28A246.88,246.88,0,0,0,325.15,447.83Z" fill="url(#linear-gradient-5)"/><path d="M970.14,359.31a272.83,272.83,0,0,1-58,138.11H1021.4A246.56,246.56,0,0,0,970.14,359.31Z" fill="url(#linear-gradient-6)"/></svg>