<svg id="Layer_1" data-name="Layer 1" xmlns="http://www.w3.org/2000/svg" width="1021.4" height="497.42" viewBox="0 0 1021.4 497.42">
    <title>logo</title>
    <path d="M495,479a276,276,0,0,0-360.89,18.43H0A248.79,248.79,0,0,1,248.36,262.34,248.83,248.83,0,0,1,495,479Z" />
    <path d="M501.05,149.7A248.77,248.77,0,0,0,78.51,293.5a276.06,276.06,0,0,1,365,22.41A274.05,274.05,0,0,1,522.31,477.3a248.84,248.84,0,0,0-21.26-327.6Z" />
    <path d="M686.59,72.84A248.9,248.9,0,0,0,358.9,51.61,276.06,276.06,0,0,1,542.76,495.38,248.78,248.78,0,0,0,759.41,248.71,247.22,247.22,0,0,0,686.59,72.84Z" />
    <path d="M872.06,149.7A246.71,246.71,0,0,0,728.3,78.9a276.42,276.42,0,0,1-97.65,418.52H876a248.65,248.65,0,0,0-3.92-347.72Z" />
    <path d="M325.15,447.83a247,247,0,0,0-149,49.59H474.28A246.88,246.88,0,0,0,325.15,447.83Z" />
    <path d="M970.14,359.31a272.83,272.83,0,0,1-58,138.11H1021.4A246.56,246.56,0,0,0,970.14,359.31Z" />
</svg>